<svg version="1" xmlns="http://www.w3.org/2000/svg" width="494.667" height="494.667"
     viewBox="0 0 371.000000 371.000000">
    <path d="M0 185.5V371h371V0H0v185.5zm361.5-75.8c-.2 6.5-.7 21.2-1 32.8-.6 21.5-2 52.1-3.1 67.7l-.6 8.8h-20.5l-.7-13.3c-2.1-42.8-2.6-54.9-3.2-80l-.7-27.7h30.4l-.6 11.7zm-100.2 3c19.8 34.5 34.5 76.5 45.1 129.7 2 9.8 3.6 18.2 3.6 18.7 0 .6-7.4.8-17.2.7l-17.3-.3-.8-6c-1-7.8-4.4-25.9-5.7-30.8l-1.1-3.7-30.7.2-30.7.3-1.7 7.5c-.9 4.1-2.7 13.2-4 20.2l-2.3 12.8h-15.6c-14.4 0-15.7-.1-15.3-1.8.2-.9 1.7-9.1 3.4-18.2 9.6-50.9 25.6-97.2 45.2-130.3l4-6.7h36.6l4.5 7.7zm-166.8-3.9c31 7 48.7 22.7 55.2 48.7 2.5 10.1 2.5 36.1 0 47-7.1 30.6-27.3 48.4-62.6 55.1-6.4 1.3-16.7 1.8-40.8 2.1l-32.3.5V105.8l35.8.5c31.3.4 36.8.7 44.7 2.5zm262.2 124.8c4.5 3.2 7.5 10.1 6.9 15.2-1.2 9.1-7.4 14.3-17 14.3-6.2 0-10.3-1.7-13.9-6.1-6.3-7.5-3.3-20.5 5.8-24.7 4.4-2 14.7-1.2 18.2 1.3z"/>
    <path d="M234.7 133.6c-8.3 16.3-24.7 62.1-22.9 63.8.3.4 11.9.6 25.9.6 21.7 0 25.3-.2 25.3-1.5 0-5-17-50.8-23.8-64l-2-3.9-2.5 5zM45.8 130.5c-.5.5-.8 24.6-.8 53.7V237h15.3c9.2 0 17.8-.6 21.9-1.4 18.4-3.9 29.9-14.7 35.4-33.1 2.3-7.6 2.6-29.5.5-37-5-17.8-17.3-29.1-35.8-33-7.8-1.6-35.4-3.1-36.5-2z"/>
</svg>